<svg width="96" height="88" viewBox="0 0 96 88" fill="none" xmlns="http://www.w3.org/2000/svg">
<path d="M30.9611 29.6019C26.7559 33.1965 25.0644 37.0143 24.6665 38.7584L29.5502 42.5736C29.9482 40.8295 31.6397 37.0117 35.8448 33.4171C37.7733 31.7686 39.9403 30.9495 42.2664 30.0704C45.0125 29.0324 47.9802 27.9107 51.0386 25.2417C57.6588 19.4644 59.2867 14.2321 59.2867 14.2321L54.403 10.4169C54.403 10.4169 52.7751 15.6492 46.1549 21.4265C43.0964 24.0955 40.1287 25.2172 37.3827 26.2552C35.0566 27.1343 32.8896 27.9534 30.9611 29.6019Z" fill="url(#paint0_linear_4_679)"/>
<path d="M44.961 40.6118C40.7559 44.2065 39.0644 48.0242 38.6665 49.7683L43.5502 53.5835C43.9481 51.8394 45.6396 48.0217 49.8448 44.427C51.8693 42.6965 54.0928 41.8015 56.5156 40.8263C59.1252 39.776 61.9661 38.6326 65.0386 36.2516C68.837 33.3081 71.3332 29.0569 71.3332 29.0569L66.4494 25.2417C66.4494 25.2417 65.804 27.5065 60.1549 32.4364C57.0964 35.1055 54.1287 36.2272 51.3826 37.2651C49.0566 38.1443 46.8895 38.9634 44.961 40.6118Z" fill="url(#paint1_linear_4_679)"/>
<path d="M31.5037 44.3177C31.9016 42.5736 33.5931 38.7558 37.7983 35.1612C39.7267 33.5127 41.8938 32.6937 44.2198 31.8145C46.9659 30.7765 49.9336 29.6548 52.9921 26.9858C61.2361 19.7914 62.9766 11.943 62.9766 11.943L67.8603 15.7582C67.8603 15.7582 65.6898 24.5876 57.8758 30.801C54.8003 33.2465 51.9299 34.3868 49.2889 35.4361C46.8914 36.3886 44.683 37.2659 42.682 38.9764C38.4769 42.571 36.7853 46.3888 36.3874 48.1329L31.5037 44.3177Z" fill="url(#paint2_linear_4_679)"/>
<path d="M66.5342 71.8022H61.9573C61.1064 71.8022 60.4065 71.489 60.4065 70.5594C60.4065 69.5508 61.0277 69.2724 61.9573 69.2724H66.5342V71.8022ZM67.9305 62.3503C67.2856 61.9093 66.2989 61.6549 64.9541 61.6549H58.0492L58.051 64.2126H63.8626C65.8011 64.2126 66.5342 64.8747 66.5342 66.4513V66.7698H61.7774C60.2523 66.7698 59.115 67.0712 58.3653 67.8475C57.7187 68.52 57.3179 69.3864 57.3179 70.5492C57.3179 71.8685 57.8217 72.8891 58.6757 73.5094C59.4254 74.0523 60.5112 74.3242 61.9333 74.3242H69.7403V67.2524C69.7403 64.8471 69.1469 63.1771 67.9305 62.3503ZM84.8285 61.6712C83.4855 61.6712 82.6586 62.3697 82.2451 63.6344L79.9486 70.5386L77.6537 63.6344C77.2403 62.3697 76.4137 61.6712 75.0686 61.6712L71.8975 61.6778V74.3185H75.3625V65.4095L78.3043 74.3253H81.5929L84.5347 65.4095V74.3253H88V61.6778L84.8285 61.6712ZM51.9786 66.7562H46.7293V61.6631H43.2641V74.3242H46.7293V69.2587H51.9786V74.3242H55.4422V61.6631H51.9786V66.7562ZM20.2459 71.7895H19.4172V64.2133H20.505C22.6529 64.2133 23.8196 65.6657 23.8196 67.9192C23.8196 70.3784 22.6272 71.7895 20.2459 71.7895ZM15.9484 71.7895H15.1198C12.7384 71.7895 11.546 70.3784 11.546 67.9192C11.546 65.6153 12.7129 64.2133 14.8607 64.2133H15.9484V71.7895ZM21.4879 61.6602L19.4172 61.6577V60.4512H15.9484V61.6577L13.8776 61.6602C10.1497 61.6602 8 64.0358 8 68.1784C8 71.9843 10.1497 74.3161 14.1881 74.3161H15.9484V75.5487H19.4172V74.3161H21.1775C23.2223 74.3161 24.7768 73.7178 25.837 72.6044C26.8475 71.5436 27.3638 70.0673 27.3638 68.1784C27.3638 64.0358 25.216 61.6602 21.4879 61.6602ZM32.3301 69.2587V61.6631H28.8648V74.3242H32.3301L37.5776 66.7562V74.3242H41.0409V61.6631H37.5776L32.3301 69.2587Z" fill="#1A1A1F"/>
<path d="M66.5342 71.8022H61.9573C61.1064 71.8022 60.4065 71.489 60.4065 70.5594C60.4065 69.5508 61.0277 69.2724 61.9573 69.2724H66.5342V71.8022ZM67.9305 62.3503C67.2856 61.9093 66.2989 61.6549 64.9541 61.6549H58.0492L58.051 64.2126H63.8626C65.8011 64.2126 66.5342 64.8747 66.5342 66.4513V66.7698H61.7774C60.2523 66.7698 59.115 67.0712 58.3653 67.8475C57.7187 68.52 57.3179 69.3864 57.3179 70.5492C57.3179 71.8685 57.8217 72.8891 58.6757 73.5094C59.4254 74.0523 60.5112 74.3242 61.9333 74.3242H69.7403V67.2524C69.7403 64.8471 69.1469 63.1771 67.9305 62.3503ZM84.8285 61.6712C83.4855 61.6712 82.6586 62.3697 82.2451 63.6344L79.9486 70.5386L77.6537 63.6344C77.2403 62.3697 76.4137 61.6712 75.0686 61.6712L71.8975 61.6778V74.3185H75.3625V65.4095L78.3043 74.3253H81.5929L84.5347 65.4095V74.3253H88V61.6778L84.8285 61.6712ZM51.9786 66.7562H46.7293V61.6631H43.2641V74.3242H46.7293V69.2587H51.9786V74.3242H55.4422V61.6631H51.9786V66.7562ZM20.2459 71.7895H19.4172V64.2133H20.505C22.6529 64.2133 23.8196 65.6657 23.8196 67.9192C23.8196 70.3784 22.6272 71.7895 20.2459 71.7895ZM15.9484 71.7895H15.1198C12.7384 71.7895 11.546 70.3784 11.546 67.9192C11.546 65.6153 12.7129 64.2133 14.8607 64.2133H15.9484V71.7895ZM21.4879 61.6602L19.4172 61.6577V60.4512H15.9484V61.6577L13.8776 61.6602C10.1497 61.6602 8 64.0358 8 68.1784C8 71.9843 10.1497 74.3161 14.1881 74.3161H15.9484V75.5487H19.4172V74.3161H21.1775C23.2223 74.3161 24.7768 73.7178 25.837 72.6044C26.8475 71.5436 27.3638 70.0673 27.3638 68.1784C27.3638 64.0358 25.216 61.6602 21.4879 61.6602ZM32.3301 69.2587V61.6631H28.8648V74.3242H32.3301L37.5776 66.7562V74.3242H41.0409V61.6631H37.5776L32.3301 69.2587Z" fill="white"/>
<defs>
<linearGradient id="paint0_linear_4_679" x1="62.4369" y1="10.4169" x2="26.6955" y2="10.4169" gradientUnits="userSpaceOnUse">
<stop stop-color="#FEDA3B"/>
<stop offset="0.47" stop-color="#EF5541"/>
<stop offset="0.815" stop-color="#801FDB"/>
<stop offset="1" stop-color="#7E2A89"/>
</linearGradient>
<linearGradient id="paint1_linear_4_679" x1="62.4369" y1="10.4169" x2="26.6955" y2="10.4169" gradientUnits="userSpaceOnUse">
<stop stop-color="#FEDA3B"/>
<stop offset="0.47" stop-color="#EF5541"/>
<stop offset="0.815" stop-color="#801FDB"/>
<stop offset="1" stop-color="#7E2A89"/>
</linearGradient>
<linearGradient id="paint2_linear_4_679" x1="62.4369" y1="10.4169" x2="26.6955" y2="10.4169" gradientUnits="userSpaceOnUse">
<stop stop-color="#FEDA3B"/>
<stop offset="0.47" stop-color="#EF5541"/>
<stop offset="0.815" stop-color="#801FDB"/>
<stop offset="1" stop-color="#7E2A89"/>
</linearGradient>
</defs>
</svg>
