<svg width="186" height="58" viewBox="0 0 186 58" fill="none" xmlns="http://www.w3.org/2000/svg">
<g clip-path="url(#clip0_1809_9066)">
<path d="M0 16.7923H5.378V23.3378C6.17215 23.4438 6.62005 23.0104 6.97583 22.5064C7.65245 21.553 8.32907 20.5899 8.91039 19.5755C10.3399 17.0812 12.573 16.5708 15.2128 16.8565V21.0008C13.6785 20.8179 12.9828 21.8708 12.3189 22.9783C11.6931 24.0216 10.9879 24.9846 9.59336 25.3891C12.2744 26.3457 13.2147 28.7245 14.479 30.8111C15.235 32.0598 15.9498 33.3374 16.7725 34.7628C16.0323 34.7628 15.4193 34.7628 14.8062 34.7628C13.6689 34.7628 12.5285 34.7403 11.3913 34.7724C10.9307 34.7852 10.6798 34.6311 10.4574 34.2234C9.48853 32.445 8.48155 30.6891 7.4968 28.9171C7.05525 28.121 6.41357 27.7068 5.39388 27.7486V34.7692H0V16.7923Z" fill="white"/>
<path d="M33.8373 39.2281V43.427C32.2617 43.2119 31.5946 44.3226 30.9085 45.4365C30.2764 46.4702 29.5775 47.4493 28.2751 47.812C29.9365 48.2582 30.8799 49.4877 31.6899 50.8199C32.8716 52.7525 33.9803 54.7267 35.1207 56.6881C35.181 56.794 35.2128 56.916 35.3049 57.1504C33.3704 57.1504 31.5279 57.1664 29.6855 57.1247C29.4822 57.1215 29.2249 56.8101 29.0947 56.5854C28.0908 54.8262 27.1124 53.0542 26.1213 51.2854C25.6766 50.4925 25.0381 50.072 24.0025 50.21V57.1536C22.2935 57.1536 20.6862 57.1728 19.082 57.1247C18.9295 57.1215 18.669 56.7074 18.6627 56.4794C18.6245 55.0894 18.6436 53.6962 18.6436 52.3062C18.6436 48.2133 18.6563 44.1204 18.6309 40.0242C18.6277 39.3629 18.8024 39.1414 19.4727 39.1639C20.9466 39.212 22.4238 39.1799 23.9867 39.1799V45.7286L24.209 45.9245C24.676 45.5938 25.2224 45.337 25.5845 44.9133C26.1182 44.2937 26.5152 43.5554 26.9727 42.8652C27.2522 42.4447 27.5445 42.0306 27.8081 41.5972C29.2154 39.2891 31.4199 39.0772 33.8342 39.2313L33.8373 39.2281Z" fill="white"/>
<path d="M65.3008 40.7336V21.6589H69.8497L69.91 22.6637C70.323 22.4036 70.6756 22.1436 71.0632 21.9478C74.7226 20.0731 79.1 22.5032 79.5288 26.7406C79.6591 28.0375 79.5733 29.4435 79.2175 30.6923C78.147 34.4385 73.9634 36.1399 70.5072 34.3679C70.3452 34.2844 70.1864 34.1945 69.9037 34.0437V40.7336H65.3008ZM69.8815 28.2269C69.8815 28.9202 69.8719 29.6136 69.8878 30.307C69.8942 30.5061 69.9196 30.7565 70.0403 30.8881C71.2029 32.1625 73.4393 31.8993 74.2811 30.3873C74.8338 29.3954 74.9323 28.32 74.7194 27.2092C74.3033 25.0584 72.5117 24.1949 70.6152 25.2189C70.107 25.4918 69.7989 25.8225 69.8687 26.4677C69.9291 27.0487 69.8815 27.6394 69.8815 28.2269Z" fill="white"/>
<path d="M99.9237 34.8206V37.4176H95.6543V31.4692C95.7623 31.4275 95.8131 31.3825 95.8544 31.3922C97.2299 31.6907 97.754 30.8593 98.2528 29.7454C99.3805 27.2125 100.642 24.7407 101.817 22.2304C102.039 21.7585 102.281 21.5017 102.827 21.5659C103.246 21.614 103.672 21.5755 104.098 21.5755C105.937 21.5755 105.931 21.5755 106.699 23.2287C107.805 25.5946 108.955 27.9413 110.009 30.3296C110.343 31.0872 110.708 31.5398 111.579 31.3793C111.779 31.3408 111.998 31.3922 112.271 31.405V37.424H108.059V34.827H99.9237V34.8206ZM105.988 31.3344C105.314 29.6587 104.682 28.0921 103.987 26.3651C103.269 28.1082 102.621 29.6844 101.941 31.3344H105.985H105.988Z" fill="white"/>
<path d="M78.2973 57.1085V50.4667C77.9892 50.7749 77.8113 50.9322 77.6588 51.1152C76.0991 52.9674 74.5489 54.8261 72.9797 56.672C72.805 56.8742 72.5381 57.1182 72.3031 57.1278C71.169 57.176 70.0318 57.1503 68.8438 57.1503V44.0047H73.2592V50.2388L73.4371 50.3127C74.209 49.4202 74.9841 48.5342 75.7529 47.6386C76.6709 46.5696 77.5604 45.4717 78.5133 44.4317C78.7452 44.1781 79.1646 43.9919 79.5108 43.9726C80.5591 43.9148 81.6137 43.9501 82.7033 43.9501V57.1085H78.2973Z" fill="white"/>
<path d="M56.5211 47.597V57.0927H51.9785V44.0049H65.7999V57.1023H61.251V47.597H56.5211Z" fill="white"/>
<path d="M35.3027 21.6235H39.8231V26.0086H44.5562V21.6364H49.1623V34.7081H44.642V29.7195H39.8802V34.721H35.3059V21.6235H35.3027Z" fill="white"/>
<path d="M25.2974 35.0259C23.7376 34.9585 22.2192 34.7562 20.866 33.928C18.4041 32.4257 17.3209 29.6007 17.9626 26.4676C18.5153 23.7615 20.5737 21.9092 23.4835 21.4598C25.4085 21.1644 27.2923 21.2736 29.0839 22.0665C31.7427 23.2414 33.061 25.8802 32.6989 29.1545C32.378 32.0469 30.4244 34.1656 27.4924 34.7466C26.7713 34.891 26.028 34.936 25.2942 35.0259H25.2974ZM22.6004 28.1208C22.6862 28.6505 22.7211 29.132 22.845 29.5943C23.1976 30.8976 24.0617 31.5653 25.3069 31.5493C26.5426 31.5332 27.521 30.843 27.7179 29.5429C27.8672 28.5446 27.8387 27.4596 27.6163 26.4772C27.3495 25.2991 26.4219 24.7791 25.2179 24.7983C24.0807 24.8176 23.258 25.3954 22.9022 26.5158C22.7338 27.0422 22.6925 27.6104 22.6004 28.1208Z" fill="white"/>
<path d="M121.347 33.5844C119.924 34.8139 118.316 35.0707 116.607 34.9423C115.111 34.8268 113.952 33.9793 113.59 32.7402C113.138 31.1929 113.551 29.7162 114.895 28.8687C115.867 28.2556 116.979 27.8543 118.049 27.4177C118.78 27.1192 119.555 26.9298 120.308 26.6762C121.153 26.3905 121.41 25.6554 120.785 24.9941C120.438 24.6313 119.851 24.3681 119.346 24.3199C117.659 24.1594 116.191 24.8111 114.86 25.8127C114.571 26.031 114.292 26.2621 113.882 26.5863C113.882 25.4146 113.856 24.3842 113.904 23.3569C113.914 23.1611 114.171 22.9139 114.374 22.7983C117.001 21.2928 119.803 20.9268 122.716 21.6748C124.724 22.1916 125.705 23.5463 125.734 25.6457C125.753 27.2219 125.734 28.8013 125.74 30.3775C125.74 32.1078 125.87 32.2105 127.541 31.7675V34.2746C126.318 34.5058 125.117 34.8011 123.901 34.9455C122.833 35.0707 121.811 34.8846 121.347 33.5844ZM121.131 28.5638L120.877 28.368C120.028 28.9233 119.12 29.4048 118.348 30.0533C117.799 30.5155 117.748 31.3052 118.177 31.8702C118.427 32.2009 119.082 32.5187 119.425 32.4127C120.044 32.2201 120.889 31.8157 121.058 31.302C121.331 30.4706 121.131 29.4851 121.131 28.5638Z" fill="white"/>
<path d="M36.8615 48.8842C36.8615 48.0014 36.9123 47.1411 36.8456 46.2904C36.7948 45.6387 37.0838 45.3209 37.5953 45.048C40.1143 43.703 42.7731 43.3948 45.5241 44.0144C47.6874 44.5023 48.7325 45.9084 48.742 48.1587C48.7515 49.6835 48.7483 51.2083 48.742 52.7331C48.7356 54.4795 48.8278 54.5597 50.5399 54.1777C50.5399 54.8583 50.5685 55.5228 50.5209 56.1808C50.5082 56.351 50.2699 56.611 50.0952 56.6495C48.8659 56.9224 47.6334 57.2274 46.3849 57.359C45.4891 57.4553 44.7649 56.9705 44.3424 56.03C43.04 57.0604 41.5914 57.4489 40.0127 57.3847C37.4809 57.2819 36.0387 55.5517 36.5375 53.2275C36.7535 52.2163 37.3475 51.4362 38.2369 51.0253C39.5997 50.3962 41.0292 49.9082 42.4332 49.3657C42.681 49.2694 42.9606 49.2437 43.1797 49.1057C43.5228 48.8906 44.0597 48.6402 44.0946 48.3513C44.1772 47.6515 43.8214 47.0448 43.0844 46.82C41.8202 46.438 40.6035 46.7077 39.4695 47.2695C38.5832 47.7093 37.7732 48.3096 36.8678 48.8745L36.8615 48.8842ZM44.1454 50.8135C43.0019 51.3464 41.8996 51.616 41.2198 52.5887C40.8227 53.1601 40.8068 53.8118 41.2007 54.3928C41.5851 54.961 42.2045 55.022 42.7636 54.7716C43.3703 54.5019 44.1931 54.3896 44.155 53.3944C44.1232 52.5983 44.1486 51.799 44.1486 50.8103L44.1454 50.8135Z" fill="white"/>
<path d="M95.5208 31.7708C95.5208 32.4546 95.5557 33.0709 95.5017 33.6777C95.4827 33.8831 95.2698 34.2041 95.0983 34.2427C93.8689 34.5219 92.6364 34.8173 91.388 34.9553C90.4668 35.0548 89.6949 34.6279 89.32 33.6231C87.6618 34.9553 85.8289 35.2282 83.8785 34.7948C82.646 34.5219 81.7788 33.7772 81.5151 32.4835C81.2356 31.0967 81.5056 29.8094 82.7095 28.9876C83.5735 28.397 84.5646 27.9829 85.5367 27.5848C86.4897 27.1964 87.484 26.9075 88.4751 26.6153C89.0754 26.4388 89.1898 26.0889 89.031 25.5303C88.8022 24.7213 88.2463 24.3618 87.4585 24.2976C85.6733 24.1564 84.1422 24.8048 82.7508 25.8706C82.4872 26.0728 82.233 26.2911 81.8423 26.6089C81.8423 25.4308 81.8232 24.4228 81.8582 23.4212C81.8645 23.235 82.0551 22.9879 82.2298 22.8851C85.0793 21.1998 88.1034 20.821 91.2324 21.8643C92.881 22.4132 93.6879 23.7422 93.7006 25.5046C93.7101 27.1354 93.7006 28.7693 93.7006 30.4001C93.7006 32.079 93.8626 32.2074 95.5144 31.7676L95.5208 31.7708ZM89.1104 28.3584C88.2336 28.8143 87.4776 29.1289 86.8169 29.5847C86.4547 29.8319 86.0831 30.291 86.0195 30.7051C85.9497 31.1673 86.0926 31.7837 86.3721 32.1496C86.7978 32.7018 87.4744 32.5798 88.0399 32.2652C88.5195 31.9988 89.158 31.8671 89.1199 31.071C89.0818 30.246 89.1104 29.421 89.1104 28.3584Z" fill="white"/>
<path d="M98.7451 48.82C98.7451 47.8409 98.7166 46.8778 98.7642 45.918C98.7769 45.6837 98.9834 45.3691 99.1899 45.2439C101.912 43.6388 104.828 43.3017 107.833 44.1556C109.695 44.6853 110.562 46.04 110.568 48.0014C110.572 49.5519 110.527 51.1056 110.581 52.6561C110.632 54.1199 110.413 54.7042 112.392 54.2259C112.392 54.9 112.424 55.5581 112.37 56.2098C112.357 56.3767 112.103 56.6239 111.922 56.6656C110.772 56.9352 109.616 57.237 108.447 57.3686C107.468 57.4778 106.614 57.1118 106.197 56.0332C104.609 57.2531 102.856 57.6383 100.943 57.2563C99.6822 57.0027 98.7388 56.3189 98.4148 55.0059C98.0749 53.632 98.3036 52.3126 99.4916 51.4812C100.451 50.8103 101.579 50.3673 102.665 49.9018C103.44 49.5712 104.282 49.3978 105.07 49.0961C105.4 48.9677 105.94 48.6338 105.912 48.4765C105.823 47.9661 105.622 47.3818 105.264 47.0416C104.965 46.7591 104.384 46.6884 103.929 46.6852C102.214 46.6692 100.753 47.3754 99.4345 48.4412C99.2693 48.576 99.1041 48.7076 98.9357 48.8392C98.923 48.8489 98.8881 48.8392 98.742 48.8232L98.7451 48.82ZM105.969 50.7621C105.067 51.2469 104.285 51.5775 103.615 52.0622C103.246 52.3287 102.961 52.8327 102.833 53.2885C102.614 54.0654 103.135 54.7684 103.869 54.8711C104.67 54.9835 105.931 54.3029 105.956 53.6962C105.994 52.7974 105.966 51.8985 105.966 50.7621H105.969Z" fill="white"/>
<path d="M127.368 57.1502C125.865 57.1502 124.414 57.1758 122.965 57.1245C122.752 57.1181 122.457 56.7938 122.359 56.5531C121.622 54.7522 120.929 52.932 120.217 51.1183C120.122 50.8743 120.008 50.6368 119.846 50.274C118.937 52.3606 118.051 54.322 117.238 56.3155C116.977 56.9543 116.66 57.2112 115.958 57.1726C114.827 57.1052 113.69 57.1534 112.457 57.1534C112.546 56.8741 112.587 56.6783 112.67 56.4985C114.452 52.5372 116.256 48.5855 118.01 44.6081C118.251 44.0624 118.54 43.9115 119.08 43.9404C119.792 43.9789 120.51 43.9179 121.221 43.9693C121.456 43.9853 121.793 44.1619 121.882 44.3609C123.728 48.4956 125.548 52.6431 127.368 56.7906C127.397 56.8548 127.371 56.9447 127.371 57.1502H127.368Z" fill="white"/>
<path d="M97.0195 44.0078V47.5422H93.0678V57.1084H88.468V47.5679H84.5449V44.0078H97.0163H97.0195Z" fill="white"/>
<path d="M59.495 34.7369H54.9144V25.1642H50.9531V21.6331H63.4245V25.1482H59.495V34.7369Z" fill="white"/>
<path fill-rule="evenodd" clip-rule="evenodd" d="M135.418 25.2992C135.047 24.1371 134.812 23.1002 135.129 22.0923C136.094 19.0027 137.122 15.9338 138.151 12.8658L138.151 12.8634L138.277 12.4875C138.654 11.3583 139.052 10.2362 139.469 9.05764C139.682 8.45716 139.9 7.84175 140.123 7.20358C140.882 8.77334 141.556 10.1665 142.286 11.6882C143.563 9.55341 144.815 7.4636 146.187 5.17476C146.419 7.07196 146.619 8.70593 146.832 10.4394C149.653 9.32228 152.432 8.2212 155.431 7.03023C154.977 7.67894 154.555 8.28298 154.162 8.84469C153.719 9.47822 153.314 10.0579 152.944 10.5871C153.309 10.9079 153.684 11.2085 154.052 11.5046C154.849 12.1447 155.62 12.7639 156.222 13.5212C157.836 15.55 157.601 17.5788 156.178 19.8195C155.492 20.8996 154.674 21.893 153.856 22.8865C153.405 23.4344 152.953 23.9824 152.524 24.5448C152.33 24.7997 152.133 25.0539 151.937 25.3082C151.014 26.5045 150.09 27.7025 149.291 28.9812C148.933 29.5536 148.88 30.3222 148.829 31.0699L148.829 31.0713C148.82 31.1995 148.812 31.3271 148.801 31.4531C151.908 29.0198 154.786 26.4516 157.204 23.386C158.678 21.5176 159.885 19.5338 160.495 17.1936C160.927 15.5339 160.761 13.9674 160.037 12.449C159.793 11.9353 159.735 11.7203 160.393 11.4153C164.885 9.33191 169.313 7.11048 173.36 4.22777C174.563 3.37185 175.674 2.38389 176.799 1.38391C177.319 0.921215 177.842 0.45595 178.379 0C178.382 0.00965526 178.39 0.025978 178.4 0.0476312L178.401 0.048511C178.439 0.127877 178.511 0.277677 178.528 0.43337C178.839 3.53759 177.858 6.08966 175.193 7.77178C173.511 8.83438 171.767 9.79728 170.024 10.7595L170.019 10.7627C169.689 10.9447 169.359 11.1267 169.03 11.3094C167.238 12.3045 165.475 13.3414 164.129 14.9272C163.782 15.3349 163.56 15.9223 163.465 16.4617C163.163 18.2016 162.455 19.7521 161.552 21.2416C159.739 24.2398 157.305 26.6924 154.818 29.0904C153.899 29.9764 152.92 30.7996 151.942 31.6228C151.453 32.0344 150.964 32.4461 150.482 32.8655C150.35 32.9793 150.233 33.1103 150.116 33.2403C150.058 33.3047 150.001 33.3688 149.942 33.4305C151.543 35.6359 153.948 36.4834 156.702 35.6616C158.668 35.0742 160.558 34.2039 162.431 33.3415L162.677 33.2283C162.876 33.1366 163.075 33.0446 163.274 32.9525C165.554 31.8968 167.836 30.8407 170.313 30.3712C174.37 29.604 178.137 30.2717 181.447 32.965C183.935 34.9874 185.307 37.6904 185.793 40.7529C186.559 45.5809 185.263 49.8793 181.879 53.4779C180.164 55.3045 178.16 56.6046 175.714 57.1375C172.833 57.7635 170.18 57.2659 167.861 55.343C167.55 55.0866 167.262 54.8027 166.971 54.5156C166.839 54.3858 166.707 54.2553 166.571 54.1264C167.066 54.2191 167.552 54.3287 168.032 54.4369C169.096 54.677 170.133 54.9108 171.177 54.9417C172.798 54.9899 174.427 54.64 175.787 53.555C177.21 52.4153 177.921 50.9612 178.109 49.1185C178.357 46.6403 177.597 44.5505 175.936 42.8298C174.281 41.1156 172.238 40.4672 169.885 41.183C166.886 42.0979 164.738 44.0368 163.223 46.7719C162.273 48.4861 161.228 50.1361 159.341 50.9644C158.985 51.1201 158.611 51.2388 158.223 51.3622C158.051 51.4168 157.877 51.4724 157.699 51.5326C157.906 52.253 158.11 52.9664 158.314 53.6788L158.318 53.6894C158.666 54.9035 159.013 56.1147 159.367 57.3526H138.242L138.323 57.3044L138.325 57.3031C139.356 56.6877 140.271 56.1407 141.187 55.5998C141.438 55.4521 141.691 55.3079 141.945 55.1638C142.484 54.8568 143.024 54.5495 143.541 54.2066C143.735 54.0782 143.909 53.6898 143.868 53.4651C143.665 52.3608 143.449 51.2501 143.103 50.1843C142.983 49.818 142.616 49.5111 142.281 49.231C142.234 49.1919 142.188 49.1534 142.143 49.1153C139.586 46.9485 137.378 44.4831 136.216 41.2761C135.164 38.3741 135.491 35.5075 137.048 32.8398C138.099 31.0357 139.373 29.3825 141.066 28.137C141.405 27.8876 141.795 27.7137 142.186 27.5394C142.414 27.4378 142.642 27.3359 142.861 27.2189L142.963 27.1646C145.257 25.9374 147.548 24.7121 149.376 22.776C150.873 21.1934 150.682 19.1614 148.862 18.0218C148.671 17.903 148.357 17.903 148.118 17.948C147.705 18.029 147.29 18.1091 146.876 18.1892C144.976 18.5566 143.074 18.9243 141.193 19.3829C140.782 19.4824 140.426 19.8723 140.089 20.2424C140.002 20.3378 139.916 20.4318 139.831 20.5193C139.301 21.0591 138.791 21.6204 138.282 22.1806C138.079 22.4032 137.877 22.6258 137.674 22.8466C137.435 23.1068 137.195 23.3673 136.952 23.6328L136.949 23.6355L136.947 23.6376C136.47 24.1571 135.975 24.696 135.428 25.2896L135.418 25.2992ZM153.99 42.6697C154.026 42.7359 154.063 42.8036 154.102 42.8726C153.873 42.7601 153.651 42.6401 153.432 42.5217L153.432 42.5215C152.959 42.2655 152.502 42.0178 152.016 41.8732C150.749 41.4976 149.634 42.236 149.332 43.5457C148.903 45.414 149.259 47.1989 149.916 48.9516C150.599 50.7685 151.654 52.3511 152.956 53.8278C151.854 54.6015 150.755 55.3719 149.507 56.2451C149.307 55.6603 149.112 55.0874 148.915 54.5126C148.667 53.7874 148.419 53.0591 148.16 52.2998C148.511 52.219 148.851 52.1415 149.199 52.0623C149.528 51.9873 149.865 51.9106 150.225 51.8279C150.104 51.5629 149.983 51.3013 149.863 51.0417L149.862 51.0395C149.567 50.4035 149.278 49.7787 149.014 49.141C148.334 47.4974 147.902 45.8089 148.026 43.9951C148.115 42.7111 149.103 41.2954 150.314 40.8716C151.378 40.4993 153.017 41.1638 153.763 42.2809C153.844 42.4036 153.915 42.5336 153.99 42.6697ZM144.583 14.3109C142.566 14.6383 141.035 15.5821 139.602 16.8533C139.659 16.8886 140.984 17.5435 140.984 17.5435C142.131 16.513 143.277 15.4826 144.583 14.3109Z" fill="#A98D68"/>
<path d="M152.372 33.5172C152.466 33.4415 152.563 33.3678 152.659 33.294C152.861 33.1395 153.064 32.9848 153.249 32.811C153.493 32.581 153.738 32.3513 153.982 32.1215L153.984 32.1201L153.985 32.1188C155.436 30.7551 156.886 29.3924 158.315 28.0086C159.071 27.2763 159.808 26.524 160.545 25.7715C160.951 25.3562 161.358 24.9409 161.768 24.5288C162.902 23.3892 163.846 22.1757 164.275 20.5386C164.827 18.4295 166.406 17.0652 168.195 16.0315C169.182 15.4615 170.209 14.9637 171.236 14.4657L171.237 14.4655C172.061 14.066 172.886 13.6663 173.69 13.229C174.623 12.7214 175.52 12.149 176.412 11.5799L176.414 11.5792C176.824 11.3172 177.234 11.056 177.645 10.8022C178.296 14.0284 176.841 16.3589 173.932 17.6045C172.477 18.2272 171.05 18.9271 169.665 19.6943C169.167 19.9704 168.738 20.4904 168.442 20.9976C167.823 22.0602 168.404 23.0007 169.64 23.0649C171.19 23.1452 172.588 22.6316 173.824 21.7745C174.492 21.3106 175.089 20.7473 175.688 20.1836C175.963 19.9243 176.238 19.6648 176.521 19.415C176.581 19.3606 176.65 19.3165 176.744 19.2567C176.788 19.2283 176.838 19.1964 176.895 19.1582C177.064 21.0554 176.937 22.821 175.758 24.2495C175.256 24.8594 174.446 25.3249 173.687 25.5817C172.096 26.1178 170.456 26.5223 168.817 26.8914C164.364 27.8898 160.059 29.2894 156.06 31.5397C155.387 31.9189 154.727 32.3176 154.066 32.7166C153.725 32.9222 153.385 33.1279 153.042 33.331C152.906 33.4114 152.766 33.4853 152.625 33.5596C152.57 33.5891 152.514 33.6187 152.458 33.6488L152.378 33.5236L152.372 33.5172Z" fill="#A98D68"/>
<path d="M147.81 19.9763C147.894 19.6484 147.972 19.3427 148.045 19.0555V19.0522C147.564 19.1391 147.076 19.2315 146.583 19.3249C145.327 19.5629 144.039 19.8071 142.74 19.98C142.08 20.0666 141.521 20.1597 141.082 20.6926C140.921 20.8892 140.733 21.0631 140.546 21.2362C140.48 21.2977 140.413 21.3591 140.349 21.4213C139.154 22.5674 137.957 23.7134 136.753 24.8626C137.585 25.6074 138.878 25.5849 139.586 24.93C140.123 24.4357 140.676 23.9509 141.263 23.5176C143.179 22.1019 145.345 21.2897 147.566 20.9302C147.652 20.592 147.733 20.2749 147.81 19.9763Z" fill="#A98D68"/>
</g>
<defs>
<clipPath id="clip0_1809_9066">
<rect width="186" height="57.3943" fill="white"/>
</clipPath>
</defs>
</svg>
